<svg width="283" height="213" viewBox="0 0 283 213" fill="none" xmlns="http://www.w3.org/2000/svg">
<path d="M233.681 125.459L234.994 123.506C235.345 122.776 236.954 122.895 237.471 123.486C237.823 123.901 237.527 125.005 237.361 125.38C236.954 126.307 234.901 129.896 234.901 129.896C234.901 129.896 233.903 130.369 233.034 129.245C232.424 128.496 233.404 125.873 233.681 125.459Z" fill="#F5A895"/>
<path d="M237.083 152.281C237.083 152.281 236.455 147.587 234.938 142.854C233.422 138.12 234.901 129.581 234.901 129.581C234.901 129.581 232.775 128.259 232.442 128.969C232.11 129.679 229.669 141.236 229.669 141.236C229.669 141.236 229.576 148.238 231.019 150.427C231.888 151.729 235.53 153.622 237.083 152.281Z" fill="#39AFDE"/>
<path d="M230.445 206.063C230.445 206.063 230.168 207.621 230.187 208.864C230.353 209.732 230.187 209.988 230.187 209.988L226.859 209.712C226.859 209.712 228.338 209.002 228.227 205.629C228.116 202.237 230.445 206.063 230.445 206.063Z" fill="#F5A895"/>
<path d="M230.224 209.12C230.224 209.12 228.781 209.653 227.339 209.258C225.657 210.027 224.473 210.323 222.939 210.52C221.404 210.718 221.681 211.94 224.288 211.783C226.895 211.605 228.726 211.724 229.318 211.783C229.891 211.842 230.834 211.921 230.871 211.507C230.926 211.112 230.704 208.982 230.224 209.12Z" fill="#0B5370"/>
<path d="M229.225 162.536C229.225 162.536 227.08 183.087 226.951 185.769C226.822 188.451 226.822 189.378 226.951 191.015C227.08 192.652 228.208 206.379 228.208 206.379L230.39 206.517C230.39 206.517 232.017 191.548 232.664 188.984C233.293 186.42 235.789 173.443 235.789 173.443L232.923 160.17L229.225 162.536Z" fill="#0E688C"/>
<path d="M239.616 206.339C239.616 206.339 239.505 207.483 239.616 208.726C239.838 209.574 239.709 209.85 239.709 209.85L236.362 209.87C236.362 209.87 237.767 209.041 237.416 205.669C237.046 202.296 239.616 206.339 239.616 206.339Z" fill="#F5A895"/>
<path d="M239.524 209.12C239.524 209.12 238.082 209.653 236.639 209.258C234.957 210.027 233.774 210.323 232.239 210.52C230.704 210.718 230.982 211.94 233.589 211.783C236.196 211.605 238.026 211.724 238.618 211.783C239.191 211.842 240.134 211.921 240.171 211.507C240.208 211.112 240.005 208.982 239.524 209.12Z" fill="#0B5370"/>
<path d="M233.533 162.536C233.533 162.536 235.345 183.166 235.216 185.848C235.086 188.53 237.416 206.399 237.416 206.399L239.616 206.438C239.616 206.438 240.189 190.739 240.189 188.096C240.189 185.572 240.966 165.1 240.966 165.1L237.73 160.17L233.533 162.536Z" fill="#0E688C"/>
<path d="M232.276 148.238C232.276 148.238 242.112 148.968 242.741 151.334C243.37 153.701 242.538 171.313 242.538 171.313C242.538 171.313 232.868 174.192 228.208 169.4C228.541 167.704 229.965 150.9 232.276 148.238Z" fill="#39AFDE"/>
<path d="M235.807 146.384L234.883 150.092C234.883 150.092 235.197 151.768 236.935 151.61C238.673 151.452 238.858 150.368 238.858 150.368L238.174 146.167C238.193 146.167 236.51 145.851 235.807 146.384Z" fill="#F5A895"/>
<path d="M234.717 140.586C234.717 140.586 232.535 144.096 232.942 145.319C233.348 146.542 234.864 147.547 238.23 147.587C239.357 147.291 240.282 143.524 240.171 142.755C239.505 137.805 235.863 139.619 234.717 140.586Z" fill="#FFD4CA"/>
<path d="M234.125 140.921C235.308 142.104 235.937 141.887 237.49 141.828C238.433 141.789 238.821 142.597 238.581 143.11C238.341 143.623 237.305 144.688 238.063 144.767C238.84 144.846 238.784 143.544 239.32 144.096C239.857 144.668 238.692 146.167 239.265 146.482C239.838 146.798 241.817 146.147 241.336 144.727C240.874 143.307 245.034 139.442 238.193 137.272C236.436 136.72 235.807 136.917 235.234 136.878C233.903 136.779 233.958 140.763 234.125 140.921Z" fill="#0B5370"/>
<path opacity="0.2" d="M195.581 148.508C195.581 135.61 196.95 125.453 199.686 117.978C202.422 110.523 206.841 104.054 212.98 98.5717C219.1 93.0889 223.759 88.0795 226.94 83.5434C230.12 78.9875 231.728 73.9781 231.728 68.515C231.728 55.1828 226.348 48.5167 215.587 48.5167C210.613 48.5167 206.601 50.4692 203.55 54.3347C200.481 58.22 198.872 63.4661 198.706 70.0928H156.716C156.883 52.4414 162.097 38.695 172.358 28.8339C182.62 18.9925 194.453 13.4111 212.998 13.4111C231.451 13.4111 248.314 18.6178 258.464 27.7097C268.597 36.8017 273.681 49.7395 273.681 66.5033C273.681 73.84 272.313 80.5061 269.577 86.5017C266.84 92.4972 262.458 98.6506 256.412 104.903L242.138 119.083C238.089 123.224 235.26 127.484 233.688 131.863C232.117 136.241 231.248 141.783 231.081 148.489H195.581V148.508ZM190.497 188.781C190.497 182.253 196.21 171.623 200.647 167.422C200.647 167.422 206.453 165.746 213.091 165.746C219.71 165.746 225.867 168.487 230.286 172.688C234.705 176.889 236.924 182.253 236.924 188.781C236.924 195.309 234.705 200.674 230.286 204.874C225.849 209.075 220.339 211.166 213.72 211.166C207.1 211.166 201.572 209.075 197.153 204.874C192.715 200.674 190.497 195.309 190.497 188.781Z" fill="#F5A895"/>
<path d="M190.016 148.508C190.016 135.61 191.384 125.453 194.121 117.978C196.857 110.523 201.276 104.054 207.415 98.5717C213.535 93.0889 218.194 88.0795 221.374 83.5434C224.554 78.9875 226.163 73.9781 226.163 68.515C226.163 55.1828 220.783 48.5167 210.022 48.5167C205.048 48.5167 201.036 50.4692 197.985 54.3348C194.916 58.2201 193.307 63.4662 193.141 70.0928H151.169C151.317 52.4612 156.531 38.7148 166.793 28.8537C177.055 19.0123 191.458 14.1014 210.003 14.1014C228.456 14.1014 242.767 18.6573 252.899 27.7492C263.031 36.8412 268.116 49.7789 268.116 66.5428C268.116 73.8795 266.748 80.5456 264.011 86.5412C261.275 92.5367 256.893 98.69 250.847 104.942L236.573 119.122C232.523 123.264 229.695 127.524 228.123 131.902C226.551 136.281 225.682 141.823 225.516 148.528H190.016V148.508ZM184.913 188.781C184.913 182.253 187.132 176.889 191.551 172.688C195.97 168.487 201.498 166.396 208.117 166.396C214.736 166.396 220.265 168.487 224.684 172.688C229.103 176.889 231.322 182.253 231.322 188.781C231.322 195.309 229.103 200.674 224.684 204.874C220.246 209.075 214.736 211.166 208.117 211.166C201.498 211.166 195.97 209.075 191.551 204.874C187.132 200.674 184.913 195.309 184.913 188.781Z" fill="#F5A895"/>
<path d="M244.745 178.979C244.745 178.979 243.118 179.571 242.711 182.904C242.674 183.2 243.192 183.16 243.247 182.865L244.098 181.011C244.301 181.543 243.969 181.602 243.858 182.135L243.469 183.496C243.321 184.028 243.765 184.521 244.264 184.383C244.727 184.245 245.226 184.068 245.429 183.831C245.873 183.318 246.964 180.301 246.613 179.551C246.261 178.821 245.503 178.289 244.745 178.979Z" fill="#F5A895"/>
<path d="M241.306 153.676C242.286 152.413 244.172 152.571 245.022 153.952C246.502 156.338 249.257 161.229 249.238 164.345C249.367 167.954 246.613 179.591 246.613 179.591C246.613 179.591 245.337 179.591 244.745 178.999C244.782 178.052 245.17 166.949 245.17 166.949C245.17 166.949 241.38 160.973 240.548 158.212C240.03 156.476 240.455 154.78 241.306 153.676Z" fill="#39AFDE"/>
<path d="M167.607 139.14C167.607 139.14 167.514 135.788 168.623 134.387C170.066 132.553 173.708 132.376 175.317 133.618C177.11 134.999 178.349 138.253 177.443 140.876C180.179 142.02 183.175 143.46 182.028 151.23C179.699 166.89 161.246 160.164 165.462 146.319C166.405 143.282 167.607 139.14 167.607 139.14Z" fill="#0B5370"/>
<path d="M177.646 205.012C177.646 205.012 177.905 206.472 177.887 207.616C177.739 208.424 177.887 208.661 177.887 208.661L180.974 208.405C180.974 208.405 179.606 207.754 179.699 204.598C179.81 201.462 177.646 205.012 177.646 205.012Z" fill="#ED6832"/>
<path d="M177.85 207.872C177.85 207.872 179.2 208.365 180.531 207.991C182.102 208.701 183.193 208.977 184.617 209.154C186.041 209.332 185.782 210.476 183.36 210.318C180.938 210.16 179.237 210.259 178.7 210.318C178.164 210.377 177.295 210.436 177.258 210.061C177.221 209.706 177.406 207.754 177.85 207.872ZM178.793 164.621C178.793 164.621 180.79 183.713 180.901 186.198C181.012 188.683 181.012 189.55 180.901 191.069C180.79 192.588 179.717 205.328 179.717 205.328L177.683 205.446C177.683 205.446 176.167 191.542 175.576 189.176C174.984 186.789 172.673 174.759 172.673 174.759L175.335 162.432L178.793 164.621Z" fill="#0B5370"/>
<path d="M169.141 205.289C169.141 205.289 169.252 206.354 169.141 207.498C168.938 208.286 169.067 208.523 169.067 208.523L172.173 208.543C172.173 208.543 170.861 207.774 171.193 204.638C171.526 201.522 169.141 205.289 169.141 205.289Z" fill="#ED6832"/>
<path d="M169.215 207.872C169.215 207.872 170.565 208.365 171.896 207.991C173.468 208.701 174.559 208.977 175.982 209.154C177.406 209.332 177.147 210.476 174.725 210.318C172.303 210.16 170.602 210.259 170.066 210.318C169.529 210.377 168.66 210.436 168.623 210.061C168.586 209.706 168.79 207.754 169.215 207.872ZM174.78 164.621C174.78 164.621 173.098 183.772 173.209 186.257C173.32 188.742 171.175 205.348 171.175 205.348L169.141 205.387C169.141 205.387 168.623 190.812 168.623 188.347C168.623 186.02 167.902 166.988 167.902 166.988L170.916 162.412L174.78 164.621Z" fill="#0B5370"/>
<path d="M181.141 137.523C181.141 137.523 179.754 136.261 179.514 135.827C178.83 134.703 177.72 134.446 176.999 134.407C176.629 134.387 176.334 134.703 176.334 135.078C176.334 135.176 176.389 135.275 176.463 135.334L178.275 136.261C178.367 136.3 178.367 136.32 178.441 136.399L178.515 136.557C178.645 136.734 178.626 136.813 178.404 136.853L178.164 136.833C178.053 136.853 177.221 136.517 177.129 136.458C176.981 136.379 176.796 136.517 176.814 136.695C176.814 136.833 176.888 136.971 177.018 137.03L178.423 137.977L179.569 138.411C182.121 140.58 184.284 142.178 184.543 142.848C181.88 144.88 176.685 147.345 176.685 147.345L178.83 149.928C178.83 149.928 185.357 146.24 186.891 144.899C190.127 141.606 183.766 138.785 181.141 137.523Z" fill="#ED6832"/>
<path d="M176.907 153.478C176.629 154.169 178.737 163.754 179.089 165.963C179.089 165.963 179.052 165.963 178.959 165.943C178.035 165.805 172.414 164.996 167.884 167.028L167.477 153.498L167.459 153.005C167.459 153.005 167.459 152.492 167.496 151.703C167.607 150.086 167.902 147.384 168.882 145.629C169.382 144.722 170.047 144.071 170.953 143.992C173.782 143.696 176.019 144.998 177.092 145.353C178.867 145.944 179.921 145.589 179.921 145.589C179.921 145.589 181.326 149.317 180.623 149.988L177.665 151.309C177.702 151.269 177.184 152.768 176.907 153.478Z" fill="#F5A895"/>
<path d="M176.167 135.373C176.167 135.373 177.961 139.811 176.611 141.822C175.594 143.341 173.819 143.381 173.819 143.381V145.57C173.819 145.57 173.616 145.767 173.264 145.787C172.636 145.826 170.99 144.761 170.99 144.761V136.162L176.167 135.373ZM167.163 152.532C167.163 152.532 168.586 160.243 169.215 162.196C169.548 163.754 178.867 164.207 179.458 164.326C180.586 165.391 181.215 165.351 181.585 165.351C181.862 165.351 181.733 165.41 183.212 165.509C183.877 165.548 184.321 164.819 184.007 164.187C183.23 163.379 183.286 163.675 182.232 163.438C181.104 163.201 180.827 163.063 181.011 162.846C182.139 161.505 181.122 161.229 179.994 162.61C179.921 162.689 179.791 162.629 179.68 162.629C177.517 162.077 172.414 160.539 171.711 160.519C170.898 157.245 170.676 151.427 170.676 151.427L167.163 152.532Z" fill="#ED6832"/>
<path d="M166.608 153.873C166.608 153.873 165.998 147.522 167.754 146.004C169.511 144.485 171.508 146.931 171.415 150.145C171.323 153.34 171.378 154.504 171.378 154.504C171.378 154.504 168.679 155.47 166.608 153.873Z" fill="#F5A895"/>
<path d="M176.334 134.88C176.334 134.88 175.409 140.6 173.172 139.574C171.138 138.647 172.155 139.535 170.288 141.448C169.733 142.02 170.177 135.393 170.177 135.393L176.334 134.88Z" fill="#0B5370"/>
</svg>
