<svg width="40" height="40" viewBox="0 0 40 40" fill="none" xmlns="http://www.w3.org/2000/svg">
<g id="help">
<mask id="mask0_199_540" style="mask-type:alpha" maskUnits="userSpaceOnUse" x="0" y="0" width="40" height="40">
<rect id="Bounding box" width="40" height="40" fill="#D9D9D9"/>
</mask>
<g mask="url(#mask0_199_540)">
<path id="help_2" d="M20.13 28.7179C20.4706 28.7179 20.7606 28.5977 21 28.3571C21.2394 28.1165 21.3592 27.826 21.3592 27.4854C21.3592 27.1446 21.2389 26.8546 20.9983 26.6154C20.7578 26.376 20.4671 26.2563 20.1263 26.2563C19.7857 26.2563 19.4957 26.3765 19.2563 26.6171C19.0171 26.8577 18.8975 27.1484 18.8975 27.4892C18.8975 27.8297 19.0178 28.1197 19.2583 28.3592C19.4989 28.5984 19.7894 28.7179 20.13 28.7179ZM19.2692 23.2404H20.8367C20.8794 22.4049 21.0017 21.8092 21.2033 21.4534C21.4053 21.0978 21.7253 20.6935 22.1633 20.2404C23.1569 19.2746 23.8146 18.4904 24.1363 17.8879C24.4579 17.2854 24.6187 16.6527 24.6187 15.9896C24.6187 14.7038 24.2058 13.6084 23.38 12.7034C22.5542 11.7986 21.4831 11.3463 20.1667 11.3463C19.1347 11.3463 18.1726 11.6304 17.2804 12.1988C16.3885 12.7671 15.7342 13.5299 15.3175 14.4871L16.8075 15.1634C17.1858 14.2789 17.6511 13.6802 18.2033 13.3671C18.7558 13.054 19.3611 12.8975 20.0192 12.8975C20.9892 12.8975 21.751 13.1731 22.3046 13.7242C22.8579 14.2756 23.1346 14.9765 23.1346 15.8271C23.1346 16.4874 22.93 17.0514 22.5208 17.5192C22.1117 17.9872 21.6432 18.4788 21.1154 18.9938C20.3996 19.6902 19.9129 20.3552 19.6554 20.9888C19.3979 21.6224 19.2692 22.3729 19.2692 23.2404ZM20.0054 34.3334C18.0424 34.3334 16.1894 33.9606 14.4467 33.215C12.7042 32.4695 11.1783 31.4428 9.86917 30.135C8.56 28.8272 7.53236 27.3028 6.78625 25.5617C6.03986 23.8209 5.66667 21.9688 5.66667 20.0054C5.66667 18.0146 6.03945 16.1547 6.785 14.4259C7.53056 12.6972 8.55722 11.1784 9.865 9.86919C11.1728 8.56002 12.6972 7.53238 14.4383 6.78627C16.1792 6.03988 18.0313 5.66669 19.9946 5.66669C21.9854 5.66669 23.8453 6.03947 25.5742 6.78502C27.3028 7.53058 28.8217 8.55724 30.1308 9.86502C31.44 11.1728 32.4676 12.6903 33.2138 14.4175C33.9601 16.1445 34.3333 18.0035 34.3333 19.9946C34.3333 21.9577 33.9606 23.8106 33.215 25.5534C32.4694 27.2959 31.4428 28.8217 30.135 30.1309C28.8272 31.44 27.3097 32.4677 25.5825 33.2138C23.8556 33.9602 21.9965 34.3334 20.0054 34.3334Z" fill="#2085B2"/>
</g>
</g>
</svg>
