<svg width="300" height="300" viewBox="0 0 300 300" fill="none" xmlns="http://www.w3.org/2000/svg">
<path d="M137.455 149.635C133.282 149.311 129.637 152.427 129.312 156.598C128.928 161.508 125.905 172.928 106.165 172.928C93.362 172.928 82.947 162.511 82.947 149.709C82.947 136.907 93.362 126.491 106.165 126.491C124.38 126.491 128.4 136.158 129.175 141.92C129.732 146.066 133.539 148.976 137.694 148.419C141.84 147.862 144.751 144.048 144.194 139.901C141.875 122.653 127.857 111.808 107.483 111.358C108.3 111.097 109.109 110.88 109.906 110.713C123.473 107.895 132.354 112.517 132.834 112.776C136.462 114.797 141.049 113.52 143.107 109.901C145.175 106.263 143.903 101.637 140.266 99.569C139.705 99.252 126.337 91.826 106.824 95.878C103.317 96.606 99.776 97.894 96.318 99.612C97.7 98.71 99.153 97.839 100.679 97.002C113.493 89.979 126.777 87.959 127.039 87.92C131.175 87.326 134.052 83.492 133.463 79.354C132.873 75.21 129.037 72.333 124.895 72.919C124.256 73.01 109.051 75.243 93.803 83.493C85.172 88.162 78.223 93.813 73.037 100.319C81.371 83.184 97.836 76.164 98.937 75.712C102.805 74.147 104.681 69.744 103.127 65.867C101.569 61.983 97.155 60.099 93.273 61.656C92.753 61.864 80.404 66.905 69.579 78.776C62.545 86.488 55.213 98.173 53.49 114.315C51.274 124.639 45.109 144.825 40.916 151.599C34.962 161.218 19.388 170.38 19.388 170.38C19.388 170.38 25.387 208.564 53.105 214.176C53.105 214.176 68.645 192.16 83.517 193.282C98.39 194.405 112.368 192.019 126.404 183.875C126.43 183.858 126.453 183.845 126.479 183.829C136.899 178.823 143.492 169.659 144.417 157.775C144.744 153.605 141.627 149.961 137.455 149.635ZM246.648 87.209C246.648 87.209 233.658 110.219 218.786 109.097C203.912 107.975 187.387 109.367 173.349 117.51C173.323 117.526 173.301 117.539 173.273 117.556C162.855 122.563 156.262 131.726 155.335 143.609C155.011 147.782 158.128 151.428 162.299 151.753C166.472 152.077 170.117 148.96 170.443 144.788C170.827 139.879 173.848 128.459 193.59 128.459C206.393 128.459 216.808 138.876 216.807 151.679C216.808 164.481 206.393 174.896 193.59 174.896C175.374 174.896 171.354 165.231 170.58 159.468C170.023 155.322 166.217 152.411 162.061 152.968C157.914 153.526 155.004 157.339 155.561 161.487C157.88 178.734 171.898 189.58 192.272 190.029C191.455 190.292 190.646 190.508 189.847 190.674C176.282 193.493 167.401 188.871 166.92 188.613C163.292 186.591 158.706 187.869 156.648 191.487C154.58 195.124 155.852 199.75 159.489 201.818C160.05 202.136 173.419 209.562 192.931 205.509C196.438 204.781 199.977 203.493 203.435 201.775C202.055 202.678 200.603 203.547 199.075 204.384C186.262 211.407 172.978 213.429 172.717 213.467C168.578 214.063 165.703 217.895 166.292 222.033C166.88 226.176 170.717 229.054 174.859 228.468C175.5 228.377 190.704 226.146 205.952 217.895C214.584 213.224 221.53 207.572 226.717 201.066C218.384 218.204 201.919 225.223 200.818 225.675C196.948 227.24 195.072 231.643 196.628 235.519C198.185 239.404 202.599 241.287 206.481 239.731C207.002 239.521 219.351 234.481 230.176 222.611C237.21 214.899 244.541 203.215 246.265 187.072C248.482 176.749 254.304 155.631 258.499 148.854C264.454 139.235 280.944 130.99 280.944 130.99C280.944 130.99 274.367 92.821 246.648 87.209Z" fill="#C78D75"/>
</svg>
