<svg width="317" height="233" viewBox="0 0 317 233" fill="none" xmlns="http://www.w3.org/2000/svg">
<g clip-path="url(#clip0_128_1535)">
<path d="M175.154 194.371C196.152 194.371 213.174 179.41 213.174 160.954C213.174 142.498 196.152 127.537 175.154 127.537C154.156 127.537 137.134 142.498 137.134 160.954C137.134 179.41 154.156 194.371 175.154 194.371Z" fill="#36334A"/>
<path d="M223.957 49.7592C214.82 52.8484 204.858 54.1859 194.913 53.6582C197.468 52.246 199.107 49.9785 199.768 47.601C200.428 45.2236 200.177 42.7389 199.494 40.3651C199.37 40.0941 199.377 39.7972 199.515 39.5301C199.655 39.3959 199.832 39.2878 200.032 39.2136C200.233 39.1395 200.453 39.1012 200.676 39.1016C204.527 38.6861 215.558 36.8821 218.491 39.4373C219.881 40.6481 219.349 43 219.856 44.4789C220.066 45.0897 222.746 50.1699 223.957 49.7592Z" fill="#743D2B"/>
<path opacity="0.1" d="M223.957 49.7592C214.82 52.8484 204.858 54.1859 194.913 53.6582C197.468 52.246 199.107 49.9785 199.768 47.601C200.428 45.2236 200.177 42.7389 199.494 40.3651C199.37 40.0941 199.377 39.7972 199.515 39.5301C199.655 39.3959 199.832 39.2878 200.032 39.2136C200.233 39.1395 200.453 39.1012 200.676 39.1016C204.527 38.6861 215.558 36.8821 218.491 39.4373C219.881 40.6481 219.349 43 219.856 44.4789C220.066 45.0897 222.746 50.1699 223.957 49.7592Z" fill="black"/>
<path d="M191.856 100.49L134.716 101.852C134.716 101.852 84.1694 140.004 125.925 151.586C125.925 151.586 177.351 158.058 189.658 150.564C189.658 150.564 205.042 103.556 191.856 100.49ZM189.219 113.094L128.123 116.159C128.123 116.159 132.519 104.577 150.1 104.577C167.682 104.577 187.461 101.512 189.219 108.665C190.977 115.819 189.219 113.094 189.219 113.094Z" fill="#3F3D56"/>
<path d="M146.81 94.3781C143.96 94.0401 140.861 93.8449 138.365 94.9632C137.534 95.3659 136.762 95.8378 136.064 96.3704C135.06 97.0847 134.064 97.8053 133.075 98.5323C132.352 99.0639 131.596 99.6501 131.411 100.409C131.029 101.97 133.356 103.228 135.405 103.167C137.454 103.106 139.293 102.233 141.228 101.708C145.125 100.649 159.458 102.459 160.241 99.2062C161.237 95.0706 149.98 94.7689 146.81 94.3781Z" fill="#743D2B"/>
<path d="M173.521 91.7664C169.795 93.2334 165.736 94.1264 161.571 94.3962C160.921 94.4046 160.279 94.5105 159.68 94.708C159.318 94.8808 159.041 95.1423 158.892 95.4511C157.428 97.8269 156.524 100.386 156.221 103.009C156.181 103.134 156.189 103.267 156.244 103.389C156.299 103.511 156.398 103.619 156.529 103.699C156.93 103.854 157.373 103.932 157.821 103.924C164.659 104.26 171.52 104.441 178.404 104.466C178.708 104.484 179.013 104.452 179.3 104.371C179.399 104.33 179.487 104.274 179.558 104.206C179.628 104.138 179.681 104.06 179.712 103.976C181.327 100.864 182.088 97.5251 181.948 94.1723C181.768 90.2238 180.276 88.9874 173.521 91.7664Z" fill="#F5C295"/>
<path d="M250.315 127.401L175.154 125.357L192.735 67.788C192.735 67.788 263.061 63.7003 261.303 77.6667C259.545 91.633 250.315 127.401 250.315 127.401Z" fill="#36334A"/>
<path d="M177.755 154.92C177.755 154.92 132.519 161.124 116.256 142.73C99.9928 124.335 177.791 134.213 177.791 134.213L184.384 148.18L177.755 154.92Z" fill="#36334A"/>
<path d="M164.165 233C175.575 233 184.824 225.832 184.824 216.99C184.824 208.148 175.575 200.979 164.165 200.979C152.756 200.979 143.507 208.148 143.507 216.99C143.507 225.832 152.756 233 164.165 233Z" fill="#36334A"/>
<path d="M166.143 228.572C173.304 228.572 179.11 223.386 179.11 216.99C179.11 210.593 173.304 205.408 166.143 205.408C158.982 205.408 153.177 210.593 153.177 216.99C153.177 223.386 158.982 228.572 166.143 228.572Z" fill="#3F3D56"/>
<path d="M277.126 66.0848C277.126 66.0848 259.984 58.5906 259.105 76.3041L244.601 158.74H250.754L267.457 70.5132C267.457 70.5132 275.808 71.5351 277.126 71.5351C278.445 71.5351 277.126 66.0848 277.126 66.0848Z" fill="#3F3D56"/>
<path d="M294.207 75.1805C294.05 75.6181 293.775 76.0245 293.399 76.3728C293.023 76.721 292.555 77.0029 292.027 77.1995C291.499 77.3962 290.922 77.5031 290.336 77.513C289.751 77.523 289.169 77.4358 288.63 77.2573L268.745 70.6684L272.352 64.5105L291.95 71.4284C292.841 71.743 293.558 72.2938 293.972 72.9817C294.386 73.6695 294.469 74.4493 294.207 75.1805Z" fill="#36334A"/>
<path d="M173.396 152.949C173.396 152.949 141.749 150.224 132.958 173.728C124.167 197.232 125.046 215.287 117.574 213.924C110.102 212.561 94.2788 207.792 94.2788 207.792L95.5974 214.946C95.5974 214.946 123.288 225.847 127.684 214.265C132.079 202.683 134.716 160.102 159.77 161.124C184.824 162.146 189.219 160.102 189.219 160.102L173.396 152.949Z" fill="#3F3D56"/>
<path d="M113.179 141.708C113.179 141.708 88.5648 144.092 78.895 158.059C69.2251 172.025 64.3902 197.232 64.3902 197.232H73.6205C73.6205 197.232 78.895 147.158 106.586 149.883L113.179 141.708Z" fill="#3F3D56"/>
<path d="M96.4765 219.715L57.3576 200.98C57.3576 200.98 55.1599 194.167 80.2136 191.442C80.2136 191.442 127.581 204.28 123.017 209.102C118.453 213.924 103.07 221.418 96.4765 219.715Z" fill="#36334A"/>
<path d="M157.133 158.74V198.595H162.847V158.058L157.133 158.74Z" fill="#3F3D56"/>
<path d="M165.484 183.266C165.484 183.266 176.472 216.649 169.44 221.418C169.44 221.418 160.209 200.298 153.177 203.023L155.375 183.266H165.484Z" fill="#36334A"/>
<path d="M208.119 44.2837C217.586 44.2837 225.261 38.3357 225.261 30.9986C225.261 23.6614 217.586 17.7135 208.119 17.7135C198.652 17.7135 190.977 23.6614 190.977 30.9986C190.977 38.3357 198.652 44.2837 208.119 44.2837Z" fill="#743D2B"/>
<path d="M204.877 51.134C211.868 52.0546 217.909 45.7556 224.907 46.6414C226.429 46.8829 227.886 47.327 229.212 47.9541C234.367 50.2143 238.859 53.2809 242.402 56.959C245.946 60.637 248.463 64.8461 249.795 69.3188C250.586 72.051 250.891 75.0138 249.402 77.5651C248.611 78.9213 247.358 80.0795 246.106 81.2081C241.45 85.4048 236.34 89.587 229.697 91.6175C229.048 93.3595 229.671 95.2455 230.449 96.9554C233.698 104.095 228.531 111.789 228.268 119.356C228.223 120.651 228.273 122.069 227.229 123.08C226.069 124.202 224 124.401 222.148 124.482C205.175 125.223 188.225 123.205 171.425 121.193C170.985 121.17 170.56 121.058 170.193 120.87C169.64 120.528 169.557 119.917 169.439 119.377C168.816 116.517 172.092 114.199 170.539 111.561C167.868 107.025 173.693 102.066 175.373 97.2536C177.054 92.4415 177.716 91.595 178.89 86.6937C179.329 84.861 178.064 79.3361 178.45 77.4963C179.712 71.4867 178.758 64.6416 182.846 59.4422C185.302 56.3183 184.664 53.8892 189.047 52.531C193.672 51.0979 199.93 51.5803 204.877 51.134Z" fill="#F5C295"/>
<path d="M127.462 130.361C122.344 131.126 116.911 131.856 112.973 134.501C110.568 136.117 108.951 138.307 107.381 140.453L91.3596 162.345C86.4734 169.021 81.5846 175.702 77.1545 182.567C76.7673 183.066 76.5402 183.63 76.4921 184.211C76.5098 185.031 77.2202 185.735 77.9477 186.33C80.4752 188.36 83.5799 189.905 87.0143 190.841C90.4487 191.777 94.1178 192.078 97.7289 191.72C98.831 187.298 104.255 184.375 106.913 180.37C108.374 178.169 108.961 175.694 109.904 173.33C113.421 164.511 121.77 157.429 129.876 150.665C133.706 147.469 137.628 144.217 142.564 142.119C148.354 139.658 155.073 138.978 161.544 137.956C168.015 136.934 174.715 135.384 179.294 131.696C181.238 130.107 182.701 128.204 183.579 126.123C184.457 124.042 184.727 121.836 184.369 119.665C180.224 119.44 175.61 119.022 171.611 120.055C166.967 121.256 162.475 122.896 157.823 124.122C147.899 126.737 137.755 128.822 127.462 130.361Z" fill="#696880"/>
<path opacity="0.1" d="M127.462 130.361C122.344 131.126 116.911 131.856 112.973 134.501C110.568 136.117 108.951 138.307 107.381 140.453L91.3596 162.345C86.4734 169.021 81.5846 175.702 77.1545 182.567C76.7673 183.066 76.5402 183.63 76.4921 184.211C76.5098 185.031 77.2202 185.735 77.9477 186.33C80.4752 188.36 83.5799 189.905 87.0143 190.841C90.4487 191.777 94.1178 192.078 97.7289 191.72C98.831 187.298 104.255 184.375 106.913 180.37C108.374 178.169 108.961 175.694 109.904 173.33C113.421 164.511 121.77 157.429 129.876 150.665C133.706 147.469 137.628 144.217 142.564 142.119C148.354 139.658 155.073 138.978 161.544 137.956C168.015 136.934 174.715 135.384 179.294 131.696C181.238 130.107 182.701 128.204 183.579 126.123C184.457 124.042 184.727 121.836 184.369 119.665C180.224 119.44 175.61 119.022 171.611 120.055C166.967 121.256 162.475 122.896 157.823 124.122C147.899 126.737 137.755 128.822 127.462 130.361Z" fill="black"/>
<path d="M58.3891 199.78C57.8186 200.097 57.3799 200.536 57.1272 201.043C56.5453 202.579 59.0262 203.662 61.0116 204.105C65.4721 205.099 70.2309 206.096 74.68 205.071C77.4083 204.443 79.7826 203.095 82.4932 202.422C86.5161 201.424 90.8732 201.991 95.0316 202.566C95.9608 198.515 95.3357 194.34 93.2338 190.561C91.8998 188.176 86.5591 187.015 83.3794 186.911C79.9037 186.796 78.6964 188.784 76.6901 190.613C71.8036 195.069 64.0189 196.101 58.3891 199.78Z" fill="#3F3D56"/>
<path d="M130.727 136.887C128.268 137.645 125.746 138.434 123.817 139.838C121.781 141.321 120.589 143.355 119.502 145.349C116.289 151.246 113.554 157.292 111.312 163.452C110.18 166.565 109.171 169.714 107.645 172.724C104.6 178.732 99.4329 184.485 99.9183 190.929C99.9155 191.712 100.187 192.48 100.705 193.153C101.394 193.928 102.568 194.34 103.683 194.715L109.527 196.682C112.664 197.737 116.491 198.752 119.293 197.233C121.168 196.217 121.917 194.374 122.482 192.656C124.525 186.451 125.787 180.005 129.448 174.263C133.584 167.774 140.579 162.53 144.28 155.884C144.804 154.943 145.301 153.934 146.331 153.292C147.182 152.762 148.285 152.555 149.349 152.368C171.3 148.494 193.747 146.375 215.522 141.946C218.618 141.316 221.856 140.568 224.065 138.773C227.127 136.284 227.4 132.5 227.498 129.061C227.559 126.907 227.546 124.566 225.853 122.857C223.943 120.93 220.517 120.421 217.399 120.166C205.437 119.191 194.405 120.727 182.624 121.853C171.845 122.882 160.989 127.597 150.933 130.678C144.195 132.742 137.46 134.812 130.727 136.887Z" fill="#696880"/>
<path d="M103.681 198.469C102.036 201.494 100.263 204.654 96.9286 206.679C95.5357 207.524 93.734 208.371 93.6784 209.741C93.6196 211.192 95.5847 212.149 97.3457 212.641C101.831 213.895 106.935 214.163 111.31 212.696C114.303 211.692 116.772 209.958 119.18 208.254C119.906 207.741 120.657 207.199 120.997 206.485C121.229 205.883 121.298 205.251 121.201 204.627C120.912 200.843 120.041 197.099 118.607 193.475C118.495 193.19 109.038 192.276 108.199 192.446C105.559 192.98 104.699 196.595 103.681 198.469Z" fill="#3F3D56"/>
<path d="M250.754 110.709L193.614 112.072C193.614 112.072 143.067 150.224 184.824 161.806C184.824 161.806 236.249 168.278 248.557 160.784C248.557 160.784 263.94 113.775 250.754 110.709ZM248.117 123.313L187.021 126.379C187.021 126.379 191.417 114.797 208.998 114.797C226.58 114.797 246.359 111.731 248.117 118.885C249.875 126.038 248.117 123.313 248.117 123.313Z" fill="#3F3D56"/>
<path d="M237.788 233C269.467 233 295.148 210.428 295.148 182.585C295.148 154.741 269.467 132.17 237.788 132.17C206.109 132.17 180.428 154.741 180.428 182.585C180.428 210.428 206.109 233 237.788 233Z" fill="#36334A"/>
<path d="M240.425 220.056C264.336 220.056 283.72 203.279 283.72 182.585C283.72 161.89 264.336 145.114 240.425 145.114C216.514 145.114 197.131 161.89 197.131 182.585C197.131 203.279 216.514 220.056 240.425 220.056Z" fill="#3F3D56"/>
<path d="M251.633 182.074C251.632 181.42 251.548 180.768 251.382 180.127L283.72 167.596L281.522 163.849L248.856 176.183C248.527 175.92 248.163 175.685 247.771 175.48L247.796 175.484L257.347 138.642L248.898 138.493L243.282 174.75L243.821 174.838C243.384 174.907 242.961 175.019 242.561 175.171L214.31 152.697L210.317 157.037L239.343 177.732C238.615 178.816 238.178 180.002 238.058 181.22L197.131 194.167L196.252 199.617L238.913 185.712C239.311 186.477 239.875 187.183 240.58 187.8L227.459 222.44H232.294L243.308 189.21C243.797 189.332 244.307 189.396 244.82 189.398C245.812 189.391 246.781 189.166 247.614 188.749L270.533 212.221L277.566 208.474L250.712 185.74C251.328 184.577 251.641 183.331 251.633 182.074Z" fill="#36334A"/>
<path d="M188.198 22.5876C188.973 21.0807 191.47 20.4573 192.288 18.9642C193.167 17.3585 191.789 15.3154 192.985 13.8379C194.191 12.3493 197.002 12.5238 199.239 12.8114C201.88 13.1509 204.689 13.3792 207.153 12.567C208.249 12.2057 209.221 11.6541 210.282 11.2355C211.969 10.5725 213.847 10.2561 215.737 10.3165C216.164 10.3089 216.585 10.3869 216.961 10.5428C217.319 10.7429 217.595 11.0186 217.755 11.337C218.526 12.6307 218.636 14.2454 220.031 15.1733C220.701 15.619 221.571 15.8291 222.374 16.1144C224.243 16.8136 225.79 17.9405 226.807 19.3429C227.824 20.7453 228.261 22.3557 228.06 23.9568C227.876 24.6982 227.76 25.4488 227.714 26.2029C227.768 27.8594 229.166 29.514 228.452 31.0759C227.921 32.2369 226.37 32.9241 224.849 33.282C224.417 33.4183 223.937 33.4371 223.489 33.3354C222.709 33.0904 222.554 32.3137 222.304 31.6906C221.952 30.8748 221.273 30.1676 220.366 29.672C219.459 29.1765 218.371 28.9187 217.261 28.9362C215.488 28.9945 213.694 29.7663 212.021 29.3071C211.199 29.0815 210.556 28.589 209.899 28.1446C208.387 27.122 206.598 26.2713 204.611 26.0536C202.624 25.836 200.422 26.3553 199.252 27.6188C198.779 28.1291 198.493 28.7299 198.042 29.2519C193.991 33.9421 186.526 25.8422 188.198 22.5876Z" fill="#36334A"/>
<path d="M197.332 103.551C196.579 103.475 195.815 103.543 195.104 103.748C194.393 103.953 193.757 104.29 193.252 104.728C189.406 107.444 185.329 110.505 184.632 114.501C184.525 114.865 184.582 115.247 184.792 115.583C185.162 116.053 185.976 116.157 186.686 116.166C188.484 116.18 190.264 115.896 191.908 115.334C193.552 114.771 195.022 113.942 196.219 112.904C196.879 112.323 197.484 111.66 198.389 111.333C199.215 111.094 200.102 111.009 200.979 111.084C203.392 111.145 208.902 112.102 211.006 111.175C213.218 110.199 212.609 107.142 211.577 105.667C209.122 102.163 201.51 103.516 197.332 103.551Z" fill="#743D2B"/>
<path d="M251.017 74.1205C252.495 77.8051 251.63 81.9553 253.724 85.456C255.114 87.7797 257.728 89.6527 258.537 92.1359C259.302 94.4825 258.277 97.0111 256.48 98.9903C254.683 100.97 252.18 102.49 249.671 103.93C246.922 105.507 244.069 107.046 240.831 107.899C237.601 108.75 234.141 108.878 230.733 109L208.148 109.802L203.989 100.138L218.705 95.6705C220.178 95.2234 221.678 94.7712 223.256 94.6808C225.979 94.5247 229.301 95.2996 231.051 93.674C231.606 93.0767 231.96 92.3808 232.078 91.6502C233.505 85.9725 232.264 79.9654 234.46 74.4373C235.548 71.7012 238.685 66.2126 242.964 65.7297C247.499 65.2179 249.992 71.5637 251.017 74.1205Z" fill="#F5C295"/>
</g>
<defs>
<clipPath id="clip0_128_1535">
<rect width="357" height="233" fill="white" transform="translate(-40)"/>
</clipPath>
</defs>
</svg>
