<svg width="48" height="48" viewBox="0 0 48 48" fill="none" xmlns="http://www.w3.org/2000/svg">
<g id="calendar_month">
<mask id="mask0_164_326" style="mask-type:alpha" maskUnits="userSpaceOnUse" x="0" y="0" width="48" height="48">
<rect id="Bounding box" width="48" height="48" fill="#D9D9D9"/>
</mask>
<g mask="url(#mask0_164_326)">
<path id="calendar_month_2" d="M10.769 42C10.0007 42 9.347 41.7307 8.808 41.192C8.26933 40.653 8 39.9993 8 39.231V12.3075C8 11.5392 8.26933 10.8855 8.808 10.3465C9.347 9.80783 10.0007 9.5385 10.769 9.5385H14.904V5.5385H16.6925V9.5385H31.4615V5.5385H33.1345V9.5385H37.231C37.9993 9.5385 38.653 9.80783 39.192 10.3465C39.7307 10.8855 40 11.5392 40 12.3075V39.231C40 39.9993 39.7307 40.653 39.192 41.192C38.653 41.7307 37.9993 42 37.231 42H10.769ZM10.769 40.4615H37.231C37.5387 40.4615 37.8207 40.3333 38.077 40.077C38.3333 39.8207 38.4615 39.5387 38.4615 39.231V21H9.5385V39.231C9.5385 39.5387 9.66667 39.8207 9.923 40.077C10.1793 40.3333 10.4613 40.4615 10.769 40.4615ZM9.5385 19.4615H38.4615V12.3075C38.4615 11.9998 38.3333 11.7178 38.077 11.4615C37.8207 11.2052 37.5387 11.077 37.231 11.077H10.769C10.4613 11.077 10.1793 11.2052 9.923 11.4615C9.66667 11.7178 9.5385 11.9998 9.5385 12.3075V19.4615ZM24 28.3075C23.5873 28.3075 23.2277 28.1543 22.921 27.848C22.6147 27.5417 22.4615 27.182 22.4615 26.769C22.4615 26.3563 22.6147 25.9968 22.921 25.6905C23.2277 25.3842 23.5873 25.231 24 25.231C24.4127 25.231 24.7723 25.3842 25.079 25.6905C25.3853 25.9968 25.5385 26.3563 25.5385 26.769C25.5385 27.182 25.3853 27.5417 25.079 27.848C24.7723 28.1543 24.4127 28.3075 24 28.3075ZM16 28.3075C15.5873 28.3075 15.2277 28.1543 14.921 27.848C14.6147 27.5417 14.4615 27.182 14.4615 26.769C14.4615 26.3563 14.6147 25.9968 14.921 25.6905C15.2277 25.3842 15.5873 25.231 16 25.231C16.4127 25.231 16.7723 25.3842 17.079 25.6905C17.3853 25.9968 17.5385 26.3563 17.5385 26.769C17.5385 27.182 17.3853 27.5417 17.079 27.848C16.7723 28.1543 16.4127 28.3075 16 28.3075ZM32 28.3075C31.5873 28.3075 31.2277 28.1543 30.921 27.848C30.6147 27.5417 30.4615 27.182 30.4615 26.769C30.4615 26.3563 30.6147 25.9968 30.921 25.6905C31.2277 25.3842 31.5873 25.231 32 25.231C32.4127 25.231 32.7723 25.3842 33.079 25.6905C33.3853 25.9968 33.5385 26.3563 33.5385 26.769C33.5385 27.182 33.3853 27.5417 33.079 27.848C32.7723 28.1543 32.4127 28.3075 32 28.3075ZM24 36C23.5873 36 23.2277 35.8468 22.921 35.5405C22.6147 35.2342 22.4615 34.8745 22.4615 34.4615C22.4615 34.0488 22.6147 33.6892 22.921 33.3825C23.2277 33.0762 23.5873 32.923 24 32.923C24.4127 32.923 24.7723 33.0762 25.079 33.3825C25.3853 33.6892 25.5385 34.0488 25.5385 34.4615C25.5385 34.8745 25.3853 35.2342 25.079 35.5405C24.7723 35.8468 24.4127 36 24 36ZM16 36C15.5873 36 15.2277 35.8468 14.921 35.5405C14.6147 35.2342 14.4615 34.8745 14.4615 34.4615C14.4615 34.0488 14.6147 33.6892 14.921 33.3825C15.2277 33.0762 15.5873 32.923 16 32.923C16.4127 32.923 16.7723 33.0762 17.079 33.3825C17.3853 33.6892 17.5385 34.0488 17.5385 34.4615C17.5385 34.8745 17.3853 35.2342 17.079 35.5405C16.7723 35.8468 16.4127 36 16 36ZM32 36C31.5873 36 31.2277 35.8468 30.921 35.5405C30.6147 35.2342 30.4615 34.8745 30.4615 34.4615C30.4615 34.0488 30.6147 33.6892 30.921 33.3825C31.2277 33.0762 31.5873 32.923 32 32.923C32.4127 32.923 32.7723 33.0762 33.079 33.3825C33.3853 33.6892 33.5385 34.0488 33.5385 34.4615C33.5385 34.8745 33.3853 35.2342 33.079 35.5405C32.7723 35.8468 32.4127 36 32 36Z" fill="#1C1B1F"/>
</g>
</g>
</svg>
