<svg width="20" height="20" viewBox="0 0 20 20" fill="none" xmlns="http://www.w3.org/2000/svg">
<g id="location_on">
<mask id="mask0_85_229" style="mask-type:alpha" maskUnits="userSpaceOnUse" x="0" y="0" width="20" height="20">
<rect id="Bounding box" width="20" height="20" fill="#D9D9D9"/>
</mask>
<g mask="url(#mask0_85_229)">
<path id="location_on_2" d="M10.0029 9.77563C10.3739 9.77563 10.6905 9.64354 10.9527 9.37938C11.2151 9.11521 11.3462 8.79764 11.3462 8.42667C11.3462 8.05569 11.2141 7.73903 10.9498 7.47667C10.6856 7.21444 10.3681 7.08333 9.99708 7.08333C9.62611 7.08333 9.30951 7.21542 9.04729 7.47958C8.78493 7.74375 8.65375 8.06132 8.65375 8.43229C8.65375 8.80326 8.7859 9.11993 9.05021 9.38229C9.31437 9.64451 9.63194 9.77563 10.0029 9.77563ZM10 17.516C8.04166 15.7842 6.56653 14.1691 5.57458 12.6706C4.5825 11.1723 4.08646 9.80882 4.08646 8.58021C4.08646 6.81729 4.66048 5.36319 5.80854 4.21792C6.95646 3.07264 8.35361 2.5 10 2.5C11.6464 2.5 13.0435 3.07264 14.1915 4.21792C15.3395 5.36319 15.9135 6.81729 15.9135 8.58021C15.9135 9.80882 15.4175 11.1723 14.4254 12.6706C13.4335 14.1691 11.9583 15.7842 10 17.516Z" fill="#1C1B1F"/>
</g>
</g>
</svg>
