<svg width="48" height="48" viewBox="0 0 48 48" fill="none" xmlns="http://www.w3.org/2000/svg">
<g id="notifications">
<mask id="mask0_84_304" style="mask-type:alpha" maskUnits="userSpaceOnUse" x="0" y="0" width="48" height="48">
<rect id="Bounding box" width="48" height="48" fill="#D9D9D9"/>
</mask>
<g mask="url(#mask0_84_304)">
<path id="notifications_2" d="M10 37.5385V36H13.231V19.6075C13.231 16.9915 14.0495 14.6702 15.6865 12.6435C17.3238 10.6172 19.4283 9.37833 22 8.927V8C22 7.44433 22.194 6.97217 22.582 6.5835C22.97 6.1945 23.4412 6 23.9955 6C24.5498 6 25.0225 6.1945 25.4135 6.5835C25.8045 6.97217 26 7.44433 26 8V8.946C28.5717 9.38467 30.6762 10.6172 32.3135 12.6435C33.9505 14.6702 34.769 16.9915 34.769 19.6075V36H38V37.5385H10ZM23.993 42.769C23.1027 42.769 22.3428 42.4527 21.7135 41.82C21.0838 41.1873 20.769 40.4268 20.769 39.5385H27.231C27.231 40.4335 26.9138 41.1957 26.2795 41.825C25.6455 42.4543 24.8833 42.769 23.993 42.769ZM14.769 36H33.231V19.6075C33.231 17.0565 32.3303 14.8803 30.529 13.079C28.7277 11.2777 26.5513 10.377 24 10.377C21.4487 10.377 19.2723 11.2777 17.471 13.079C15.6697 14.8803 14.769 17.0565 14.769 19.6075V36Z" fill="#1C1B1F"/>
</g>
</g>
</svg>
