<svg width="48" height="48" viewBox="0 0 48 48" fill="none" xmlns="http://www.w3.org/2000/svg">
<g id="search">
<mask id="mask0_84_322" style="mask-type:alpha" maskUnits="userSpaceOnUse" x="0" y="0" width="48" height="48">
<rect id="Bounding box" width="48" height="48" fill="#D9D9D9"/>
</mask>
<g mask="url(#mask0_84_322)">
<path id="search_2" d="M39.2615 40.296L26.4575 27.4925C25.4678 28.3865 24.3135 29.0683 22.9945 29.538C21.6758 30.0077 20.3495 30.2425 19.0155 30.2425C15.8292 30.2425 13.1327 29.142 10.926 26.941C8.719 24.74 7.6155 22.0567 7.6155 18.891C7.6155 15.7253 8.716 13.0398 10.917 10.8345C13.118 8.62949 15.8003 7.52699 18.964 7.52699C22.1277 7.52699 24.8195 8.62799 27.0395 10.83C29.2592 13.0323 30.369 15.715 30.369 18.878C30.369 20.2517 30.123 21.5987 29.631 22.919C29.1387 24.2397 28.4513 25.3937 27.569 26.381L40.3845 39.1345L39.2615 40.296ZM19.004 28.704C21.7593 28.704 24.086 27.7585 25.984 25.8675C27.882 23.9765 28.831 21.6488 28.831 18.8845C28.831 16.1205 27.882 13.793 25.984 11.902C24.086 10.011 21.7593 9.06549 19.004 9.06549C16.242 9.06549 13.9098 10.011 12.0075 11.902C10.1052 13.793 9.154 16.1205 9.154 18.8845C9.154 21.6488 10.1052 23.9765 12.0075 25.8675C13.9098 27.7585 16.242 28.704 19.004 28.704Z" fill="#1C1B1F"/>
</g>
</g>
</svg>
